<svg xmlns="http://www.w3.org/2000/svg" viewBox="0 0 614.64 226.36"><defs><style>.cls-1{fill:#b160ca;}.cls-2,.cls-3{fill:#98ff98;}.cls-2{fill-rule:evenodd;}.cls-4{fill:#fcee21;}</style></defs><title>logo-oval</title><g id="Layer_2" data-name="Layer 2"><g id="Layer_1-2" data-name="Layer 1"><ellipse class="cls-1" cx="307.32" cy="113.18" rx="307.32" ry="113.18"/><path class="cls-2" d="M330.87,75.21l0,0a0,0,0,0,0,0,0l0,0h0Zm-7.5-11h0l.06,0A.12.12,0,0,0,323.37,64.22Zm-32.57-.57h0a0,0,0,0,1,0,0h0v.06h0a1.31,1.31,0,0,1,.11-.12h0Z"/><path class="cls-2" d="M320.18,68c0-.61-.05-1.14.86-1.13-.2-.28-.31-.45-.44-.62s-.08,0-.12-.08c-.29-.24-.81-.3-.67-.86s.65-.52,1.14-.6c.23,1,.47,2,1.6,2.5C322,68.3,321,67.87,320.18,68Z"/><path class="cls-2" d="M318.32,67.57c-.2-.59.19-1,.53-1.35.18-.19.61-.18.92-.16s.4.39.3.68A2.28,2.28,0,0,1,318.32,67.57Z"/><path class="cls-2" d="M305.16,69.53a6,6,0,0,1-.81.79.81.81,0,0,1-.59,0c-.09,0-.13-.23-.19-.36a.91.91,0,0,1,.33-.13c.25,0,.47,0,.61-.29.06-.12.39-.1.6-.13A.58.58,0,0,1,305.16,69.53Z"/><path class="cls-2" d="M302.83,69.84c.07.17.22.37.17.51s-.3.14-.46.21l-.13-.11.24-.6Z"/><path class="cls-3" d="M330.87,75.21l0,0a0,0,0,0,0,0,0l0,0h0Zm-7.66-11.14h0s0,0,0,0h0s0,0,0,0Zm-32.44-.41h0Z"/><path class="cls-3" d="M290.77,63.66h0Zm.14-.11s0,0,0,0l-.11.1h0l.14-.11h0l0,0Z"/><path class="cls-3" d="M323.26,64.13h0a.5.5,0,0,0,.08.07A.5.5,0,0,0,323.26,64.13Zm0,0h0s0,0,0,0S323.26,64.11,323.26,64.12Z"/><path class="cls-3" d="M290.8,63.65h0l.13,0h0Zm32.46.47h0s0,0,0,0S323.26,64.11,323.26,64.12Z"/><path class="cls-3" d="M323.37,64.22h0l.06,0A.12.12,0,0,0,323.37,64.22Zm-.11-.09h0s0,0,0,0h0s0,0,0,0h0a.5.5,0,0,0,.08.07A.5.5,0,0,0,323.26,64.13Zm-32.46-.47a0,0,0,0,1,0,0h0v.06h0a1.31,1.31,0,0,1,.11-.12Z"/><path class="cls-3" d="M290.91,63.55s0,0,0,0l-.11.1h0l.14-.11Zm-.09.27s.07,0,.11,0A.13.13,0,0,0,290.82,63.82Zm0-.16h0Zm0,0h0Zm0,.05,0,0,0,0h.09v-.11Zm.08-.06h0a0,0,0,0,1,0,0h0v.06h0a1.31,1.31,0,0,1,.11-.12h0Zm.11-.1s0,0,0,0l-.11.1h0l.14-.11Zm-.09.27s.07,0,.11,0A.13.13,0,0,0,290.82,63.82Zm-.05-.16h0Zm0,.05,0,0,0,0h.09v-.11Z"/><path class="cls-3" d="M290.77,63.66h0Zm0,0h0a0,0,0,0,1,0,0h0v.06h0a1.31,1.31,0,0,1,.11-.12h0Zm.11-.1s0,0,0,0l-.11.1h0l.14-.11h0l0,0Zm0,0h0l0,0Z"/><path class="cls-3" d="M290.79,63.78h0l0,0a.13.13,0,0,1,.11,0Zm0-.11,0,0,0,0,0,0h.1S290.78,63.67,290.77,63.67Zm.14-.12s0,0,0,0l-.11.1h0l.14-.11Zm-.12.23h0l0,0a.13.13,0,0,1,.11,0Zm0-.12v0a0,0,0,0,0,0,0h0Zm0,0v.11h0S290.78,63.67,290.77,63.67Zm0,0h0v0h0s0,0,0,.06h0a1.31,1.31,0,0,1,.11-.12h0Zm.11-.1s0,0,0,0l-.11.1h0l.14-.11Zm-.12.23h0l0,0a.13.13,0,0,1,.11,0Zm0-.11,0,0,0,0,0,0h.1S290.78,63.67,290.77,63.67Z"/><path class="cls-3" d="M290.77,63.67v.11h0S290.78,63.67,290.77,63.67Zm0,0h0Zm0,.13h0Zm0-.14h0v0h0v.06h0a1.31,1.31,0,0,1,.11-.12h0Zm.11-.1s0,0,0,0l-.11.1h0l.14-.11Zm-.12.24h0Z"/><path class="cls-3" d="M290.77,63.73v-.06l0,0,0,0,0,0h.1A.1.1,0,0,1,290.77,63.73Zm-.38.08h0Zm.38-.15h0Zm0,0,0,0,0,0,0,0h.1S290.78,63.67,290.77,63.67Zm-.38.14h0Z"/><path class="cls-3" d="M290.77,63.67v.11h0S290.78,63.67,290.77,63.67Zm0,.11v0Zm0-.12h0Zm0,.07v.05h0A.1.1,0,0,1,290.77,63.73Zm0,.05v0Z"/><path class="cls-3" d="M290.77,63.66h0Zm0,0v.06a.1.1,0,0,0,0,0S290.78,63.67,290.77,63.67Zm-.13.11h0Z"/><path class="cls-3" d="M290.66,63.76Zm.11-.09v.06a.1.1,0,0,0,0,0S290.78,63.67,290.77,63.67Zm0,0h0Zm-.11.1Z"/><path class="cls-3" d="M290.77,63.66h0Zm0,0v.06s0,0,0,0,0,0,0,0l0,0,0,0,0,0h0l0,0a.1.1,0,0,0,0,0S290.78,63.67,290.77,63.67Z"/><path class="cls-3" d="M290.72,63.75h0s0,0,0,0v0l0,0,0,0,0,0,0,0h0Zm0-.08v.06a.1.1,0,0,0,0,0S290.78,63.67,290.77,63.67Zm0,0h0Z"/><path class="cls-3" d="M290.76,63.76h0Zm0-.1h0Zm0,0v.06a.1.1,0,0,0,0,0S290.78,63.67,290.77,63.67Zm0,.09h0Zm0,0,0,0,0,0h0l0,0h0l0,0Z"/><path class="cls-3" d="M290.72,63.71l0,0,0,0h0l0,0h0l0,0Zm0,0h0Zm0-.09v.06a.1.1,0,0,0,0,0S290.78,63.67,290.77,63.67Zm0,0h0Zm0,.1h0Z"/><path class="cls-3" d="M290.76,63.76h0Zm0-.1h0Zm0,0v.06a.1.1,0,0,0,0,0S290.78,63.67,290.77,63.67Zm0,.09h0Zm0,0,0,0,0,0h0l0,0h0l0,0Z"/><path class="cls-3" d="M290.72,63.71l0,0,0,0h0l0,0h0l0,0Zm0,0h0Zm0-.09v.06a.1.1,0,0,0,0,0S290.78,63.67,290.77,63.67Zm0,0h0Zm0,.1h0Z"/><path class="cls-3" d="M290.77,63.78Zm0,0h0Zm0-.1h0Zm0,.12h0Zm0-.05a.1.1,0,0,0,0,0s0-.1,0-.1Zm0,0h0Zm-.07,0,0,0h0l0,0h0l0,0,0,0Z"/><path class="cls-3" d="M306.74,52.52a31,31,0,1,0,31,31A31.06,31.06,0,0,0,306.74,52.52Zm16.63,11.7a.12.12,0,0,1,.05,0l-.06,0h0Zm-27,4.16c.35.09.54.8.44.8h-2.27A1.52,1.52,0,0,1,296.38,68.38Zm.26,2.12v-.77h.94C297.66,70.42,297.33,70.46,296.64,70.5Zm-.47,1.15c.07-.57.43-.83,1.2-.86C297.47,71.59,297.13,71.82,296.17,71.65Zm-1.64-1.18c.15-.58.72-.88,1.54-.77L295,71.24C294.38,71.17,294.43,70.83,294.53,70.47Zm-.28-4.07c.06.91,0,1-.83,1.22a1.3,1.3,0,0,1-.1-.15c-.12-.22-.22-.45-.41-.84Zm-3.46-2.74h0l.11-.1s0,0,0,0l.07,0,0,0h0l-.14.11.14,0h0a1.31,1.31,0,0,0-.11.12h0v-.06h0Zm-.42.26h0v-.05s.06,0,.06,0l.05,0h0a.1.1,0,0,0,0,.08c.05,0,.07-.11.11-.11h-.07s-.09,0-.09,0h0l.19.16h0s0-.08,0-.09a.14.14,0,0,0,0-.06s-.13,0-.12,0-.1,0-.1-.06v.25h.3l-.15-.12s-.15-.06-.15,0h0l.3.14h.16c.35-.65.67-.3,1-.37.18.47.06.61-.38.57s-.69.13-1.06-.18c0,0,0,0,0,0h0s-.07,0-.11,0S290.36,63.92,290.37,63.92ZM281.2,83.54a23.81,23.81,0,0,1,1-7c.34.59.4,1.15.77,1.7a1.26,1.26,0,0,0,1.39.6,1.53,1.53,0,0,0-.27-.66c-.6-.85-1.05,0-.94-2.55h.51s.07-.23.07-.19a5.15,5.15,0,0,0,1.49,3.16c.24.31.33.49.07.85-.08.11,0,.31,0,.48s.07.1.1.16c.51,1.37,1.81,1.31,2.92,1.6.06,0,.18,0,.19,0,.26-.6.66,0,1-.24a3,3,0,0,1,0,.45c-.07.28.06.37.31.39h.1a3.1,3.1,0,0,1,2.47,1.47,1.87,1.87,0,0,0,1.9.92c.15,0,.31,0,.45,0,.39,0,.5.15.6.54a1.49,1.49,0,0,1-.91,2,.78.78,0,0,0-.46.8c0,.56-.13,1.12-.16,1.69a.9.9,0,0,0,.14.58c.45.61,1,1.17,1.39,1.78a10.74,10.74,0,0,1,.62,1.22c.08.14.2.34.33.36a5.51,5.51,0,0,1,2.09,1.25.81.81,0,0,1,.22.56c0,1.32,0,2.64,0,4,0,.17.12.45.26.49a.35.35,0,0,1,.25.49c0,.12,0,.24-.07.35a2.24,2.24,0,0,0,.54,2.59.71.71,0,0,1,.13.59,4.45,4.45,0,0,0,.78,3.49,5.89,5.89,0,0,0,.89,1.08A25.58,25.58,0,0,1,281.2,83.54Zm49.65-8.33s.93,0,.93,0c-.64-.61-1.21-.57-1.21-.36v.83s-1.34,0-1.49,0c-.83-.27-2.14-.56-3-.81-.32-.1-.73-.21-.69-.58s-.12-.72-.12-1.18c-1.35.28-2.77,0-4,.67a3,3,0,0,1-1.55.1c-.81-.09-1.34.46-1.94.81-.13.08-.13.47-.1.71a1.27,1.27,0,0,1-.7,1.39c-.66.4-1.26.88-1.88,1.34-.22.18-.6.26-.46.72s.21.74.76.63c0,.43.07.87-.45,1-.05,0-.07.13-.09.21a1.27,1.27,0,0,0,0,.2,3.35,3.35,0,0,0,1.21,3.42,7.2,7.2,0,0,1,.93,1c.61.69.89.7,1.81.44a7.53,7.53,0,0,1,1.65-.06,1.26,1.26,0,0,0,.63-.22,1.5,1.5,0,0,1,2,0,2.75,2.75,0,0,0,1,.37,6.69,6.69,0,0,0,1,.09c-.06.67-.13,1.31-.16,2a1.49,1.49,0,0,0,.15.75c.5.94,1.06,1.86,1.55,2.8a.89.89,0,0,1,0,.68,12.31,12.31,0,0,1-.61,1.2,1.3,1.3,0,0,0,.26,1.79,1,1,0,0,1,.39,1c0,.14,0,.3,0,.45a2.43,2.43,0,0,0,.61,2.07,25.48,25.48,0,0,1-20.52,10.38,23.36,23.36,0,0,1-2.52-.13.39.39,0,0,0-.08-.14,4.86,4.86,0,0,0-.66-.54c-.39-.24-.39-.57-.28-1s.18-.69.28-1.11c-.5-.09-1.05,0-1.22-.57.25-.34.52-.69.82-1.11a3.34,3.34,0,0,1-.54-.22,2.24,2.24,0,0,1-.32-.3c.11-.1.2-.24.33-.29.71-.28,1.44-.51,2.15-.78a1,1,0,0,0,.41-.34c.67-.92,1.33-1.84,2-2.78a1.25,1.25,0,0,0,.15-.67,2.32,2.32,0,0,0-.17-.78A1.25,1.25,0,0,1,307.4,97a.75.75,0,0,1,.59-.14,2,2,0,0,0,1.93-.65,1.05,1.05,0,0,0,.26-.5c.12-.9.18-1.8.31-2.69a1.93,1.93,0,0,1,.36-.8c.38-.56.94-1,1-1.74,0-.24,0-.4-.25-.44a1.54,1.54,0,0,1-1.25-1,.65.65,0,0,0-.75-.43,6.78,6.78,0,0,1-3.6-.63.5.5,0,0,1-.37-.5,3.2,3.2,0,0,0-.44-1.72c-.23-.36-.46-.54-.87-.47a1.48,1.48,0,0,1-1.83-1,1.67,1.67,0,0,0-1.2-1l.05.14a7.47,7.47,0,0,1-.79.29,4.48,4.48,0,0,1-.64.06.55.55,0,0,1-.66-.32c-.45-.84-1.33-.61-2-.8-.07,0-.19.11-.27.2a3.29,3.29,0,0,0-.42.49,1.56,1.56,0,0,1-2,.72c-1-.25-1-.19-1.11-1.24,0-.48-.07-1-.11-1.48l-.81-.15-.75-.14c.1-.64.89-1.12.34-1.9l-1.73,1.15a2.43,2.43,0,0,1-1.68,0,1.84,1.84,0,0,1-.37-1.52c.24-.61.54-1.21.83-1.81a.41.41,0,0,1,.2-.21,4.51,4.51,0,0,1,2.62-.83c.63.07,1.27,0,1.91,0a.47.47,0,0,1,.35.27c.15.88.19.94,1.16,1.19a3.07,3.07,0,0,0,0-.68c-.23-.94.35-1.46,1-1.92.41-.3.85-.54,1.25-.84a1.54,1.54,0,0,0,.35-.51,8.34,8.34,0,0,1,.47-.89,8.66,8.66,0,0,1,2.79-2.23,4,4,0,0,0,1-1.09c.35-.4.69-.49,1.1,0l.47-.53a4.94,4.94,0,0,1-.63-.18c-.11-.06-.27-.17-.28-.28a.61.61,0,0,1,.15-.43c.2-.22.88-.18,1,.08.19.44.5.43.85.33s.57-.21.85-.31c0-.07,0-.14,0-.2s.37.15.37.22a.81.81,0,0,1-.19.5c-.3.32-.27.62.14.75s1,.3,1.54.46c.16-.48.16-.79-.34-1a5,5,0,0,1-.81-.51c.26-.14.51-.3.77-.43s.37-1,.06-1.16c-.9-.34-1-1-.93-1.85a1.78,1.78,0,0,0,0-.29l-2,.79c0-.44.06-.7.1-.95s0-.5-.38-.56a7,7,0,0,1-1.12-.26.87.87,0,0,0-.87.19.91.91,0,0,0-.43.88,2.32,2.32,0,0,1-.07,1.27c-.18.28-.72.34-1.11.46a1.81,1.81,0,0,0-1,1c-.18.36.17.52-1.12.4V66.12a2.09,2.09,0,0,0-.71-.15,1.28,1.28,0,0,1-1.19-1.36c0-.09.12-.25.19-.29a12.49,12.49,0,0,1,3.44-1.68l.14,0c.06.22.13.45.19.7.33,0,.63.1.76-.35,0-.12.41-.14.63-.21l-.45-.69a1.93,1.93,0,0,0,1.67-.69c.27-.23.77-.15,1.15-.26a1.32,1.32,0,0,1,1.52.62l-2.07,1.12,2.64.63s.08-.07.08-.1a.94.94,0,0,1,1.22-.81c.54.08.45-.47.73-.75l-.88-.27c.32-.92-.3-1.2-1-1.42a6.81,6.81,0,0,1-.73-.33,3.6,3.6,0,0,0-3.3.13.61.61,0,0,0-.42.78,7.47,7.47,0,0,1,.05.78c-.4-.1-.8-.09-1-.29a.54.54,0,0,1,.06-.87,7.21,7.21,0,0,0,.65-.59l0-.15c-.61,0-1.23,0-1.84,0-.42,0-.57.33-.59.74l.57.15c.08.51-.1.74-.61.72-.32,0-.68,0-.82.39,0,.06-.2.1-.3.11s-.41,0-.6,0c-.87,0-.87,0-.91-.91a4.39,4.39,0,0,0,1.32-.14,4.52,4.52,0,0,0,.95-.87c-.45-.39-.45-.39-.82,0a1.26,1.26,0,0,1-1.46.34A27.29,27.29,0,0,1,307.18,58c6.3,0,11.8,2.29,16.95,6.09V64h-.88s0,.06,0,.06,0,0,0,0,0,0,0,0,.06,0,.06,0a.08.08,0,0,1,0,0h0s.53,0,.56.07.31,0,.31-.07h0c0,.29-.32.55.08.67.16,0,.08.23.18.38s.06.4.15.65c.16-.06.24-.12.39-.18-.39-.4-.85-.78-1.27-1.16l-.13-.13a0,0,0,0,0,0,0,2,2,0,0,1,.16.14c.42.37.83.76,1.22,1.16s.58.6.85.91l0,.16-.95-.08c-.77-.08-1.47,0-1.87.78a1.41,1.41,0,0,1-1.4.92c-.5,0-.69.23-.7.69,0,.19-.06.39-.09.61l.57.2c0,.24-.1.47-.15.76a4.1,4.1,0,0,0-.86-.15,6,6,0,0,0-1.7.16c-.23.08-.4.57-.43.9a3.19,3.19,0,0,0,.14,1.14c.12.49.6.57,1,.6a9.67,9.67,0,0,0,1.7-.06.73.73,0,0,0,.41-.29c.47-.66.92-1.34,1.4-2a.44.44,0,0,1,.42-.13,1,1,0,0,0,1.17-.39,3.22,3.22,0,0,1,.31-.26c.28.94,1.2,1.14,1.83,1.67.15.12.33.22.5.35-.16.66-.69.25-1,.39a.7.7,0,0,0,.85.59c.35-.09.78-.15.69-.72a2.16,2.16,0,0,1,.17-.71c-.58-.6-1.92-.63-1.87-2,.6-.06,1.19-.14,1.64.46a7.1,7.1,0,0,0,.71.63c.1.1.22.26.2.37-.14.94.53,1.41,1.09,2a1.59,1.59,0,0,0,.22-.61,24.85,24.85,0,0,1,1.11,2.66l0,0v0h0Zm-32.94-4.92c1,.14,1.07.19,1,.73C298.11,71.26,297.82,71.06,297.91,70.29Z"/><path class="cls-2" d="M336.17,35.4A8.7,8.7,0,0,0,329.84,34a7.61,7.61,0,0,0-5.07,2.6,4.64,4.64,0,0,0-.08,6.05c.33.41.71.77,1.14,1.22a4.13,4.13,0,0,1-1,1,13.77,13.77,0,0,1-1.35.89,5.59,5.59,0,0,0,5.15-.29,1.84,1.84,0,0,1,.95-.18,9.17,9.17,0,0,0,6.49-1.39C339.4,41.65,339.42,37.69,336.17,35.4Zm.39,7.78A8.57,8.57,0,0,1,329.61,45a1.75,1.75,0,0,0-1,.19,5.34,5.34,0,0,1-4.45.44,6.19,6.19,0,0,0,2.11-1.88l-.7-.63a4.5,4.5,0,0,1,.1-7.07,8.29,8.29,0,0,1,6.69-1.81,7.54,7.54,0,0,1,4.21,1.83A4.49,4.49,0,0,1,336.56,43.18Z"/><path class="cls-3" d="M325.85,46.57a6.31,6.31,0,0,1-2.45-.52l-.57-.23.52-.33c.17-.12.34-.22.49-.31a5.57,5.57,0,0,0,.82-.56,4,4,0,0,0,.76-.77c-.08-.07-.15-.15-.22-.22-.27-.28-.53-.54-.76-.83a5,5,0,0,1,.08-6.45,7.88,7.88,0,0,1,5.27-2.72,9.11,9.11,0,0,1,6.57,1.5,5.24,5.24,0,0,1-.07,9,8.92,8.92,0,0,1-5.2,1.53h0a13.27,13.27,0,0,1-1.51-.09,1.29,1.29,0,0,0-.75.15A6.08,6.08,0,0,1,325.85,46.57Zm-.93-1a5.47,5.47,0,0,0,3.53-.63,2.17,2.17,0,0,1,1.2-.22,8.16,8.16,0,0,0,6.7-1.74,4.17,4.17,0,0,0,0-6.63,7.3,7.3,0,0,0-4-1.76,8,8,0,0,0-6.44,1.75,4.36,4.36,0,0,0-1.65,3.25,4.42,4.42,0,0,0,1.56,3.33l.92.83-.18.23A6.7,6.7,0,0,1,324.92,45.53Z"/><path class="cls-2" d="M280.17,49.72a13,13,0,0,0,9.1,1.94,2.33,2.33,0,0,1,1.32.26,7.83,7.83,0,0,0,7.22.39,18.29,18.29,0,0,1-1.89-1.24,5.71,5.71,0,0,1-1.34-1.47c.59-.64,1.13-1.14,1.59-1.71a6.51,6.51,0,0,0-.11-8.48,10.64,10.64,0,0,0-7.1-3.64,12.18,12.18,0,0,0-8.88,2C275.52,41,275.56,46.56,280.17,49.72Zm-.65-11a10.74,10.74,0,0,1,5.92-2.56,11.64,11.64,0,0,1,9.37,2.54,6.3,6.3,0,0,1,.14,9.91l-1,.88a8.68,8.68,0,0,0,3,2.64,7.49,7.49,0,0,1-6.24-.63,2.46,2.46,0,0,0-1.41-.25c-3.59.41-6.94-.12-9.76-2.56A6.31,6.31,0,0,1,279.52,38.73Z"/><path class="cls-3" d="M294.54,53.33a8.36,8.36,0,0,1-4.1-1.13A2.11,2.11,0,0,0,289.3,52a19.16,19.16,0,0,1-2.1.12h0A12.3,12.3,0,0,1,280,50a7.68,7.68,0,0,1-3.63-6.2,7.71,7.71,0,0,1,3.53-6.25A12.57,12.57,0,0,1,289,35.45a11,11,0,0,1,7.31,3.76,6.8,6.8,0,0,1,.11,8.88,15.26,15.26,0,0,1-1,1.13l-.4.41a5.18,5.18,0,0,0,1.14,1.19,8.81,8.81,0,0,0,1.17.8L298,52l.51.34-.57.23A8.62,8.62,0,0,1,294.54,53.33Zm-5-2.41a2.78,2.78,0,0,1,1.31.31,7.7,7.7,0,0,0,5.32.83,9.4,9.4,0,0,1-2.47-2.37l-.17-.23.74-.66.47-.42A6,6,0,0,0,294.6,39a11.25,11.25,0,0,0-9.13-2.46A10.37,10.37,0,0,0,279.74,39a6.39,6.39,0,0,0-2.34,4.78,6.32,6.32,0,0,0,2.34,4.71c2.46,2.13,5.51,2.93,9.5,2.48Z"/><path class="cls-2" d="M293.5,30a8.85,8.85,0,0,0,6.26,1.33,1.68,1.68,0,0,1,.91.18,5.43,5.43,0,0,0,5,.28c-.51-.34-.94-.56-1.3-.86a4.17,4.17,0,0,1-.92-1c.41-.44.78-.78,1.09-1.18a4.47,4.47,0,0,0-.07-5.83,7.33,7.33,0,0,0-4.89-2.51,8.45,8.45,0,0,0-6.11,1.39C290.3,24,290.33,27.84,293.5,30Zm-.44-7.56a7.37,7.37,0,0,1,4.07-1.76,8,8,0,0,1,6.45,1.75,4.33,4.33,0,0,1,.1,6.81l-.68.61a6.09,6.09,0,0,0,2,1.82,5.19,5.19,0,0,1-4.3-.44,1.69,1.69,0,0,0-1-.17,8.28,8.28,0,0,1-6.71-1.76A4.34,4.34,0,0,1,293.06,22.45Z"/><path class="cls-3" d="M303.39,32.49a5.77,5.77,0,0,1-2.82-.77,1.39,1.39,0,0,0-.78-.15c-.5.05-1,.08-1.45.08h0a8.5,8.5,0,0,1-5-1.46,5.33,5.33,0,0,1-2.5-4.27,5.3,5.3,0,0,1,2.44-4.3,8.65,8.65,0,0,1,6.26-1.43,7.57,7.57,0,0,1,5,2.59,4.68,4.68,0,0,1,.08,6.11,10.27,10.27,0,0,1-.71.77l-.28.29a3.82,3.82,0,0,0,.78.82,6,6,0,0,0,.81.55l.47.29.36.23-.39.16A6.1,6.1,0,0,1,303.39,32.49ZM300,30.84a1.87,1.87,0,0,1,.9.21,5.3,5.3,0,0,0,3.66.57A6.37,6.37,0,0,1,302.82,30l-.12-.16.5-.45.33-.29a4.12,4.12,0,0,0-.1-6.49,7.76,7.76,0,0,0-6.28-1.69,7,7,0,0,0-3.94,1.71,4.37,4.37,0,0,0-1.61,3.28,4.28,4.28,0,0,0,1.61,3.24,8,8,0,0,0,6.53,1.71Z"/><path class="cls-2" d="M307.18,32.51a10.87,10.87,0,0,1,6.75,2,14.22,14.22,0,0,1,1.42,1.38.6.6,0,0,0,.43.22,8.58,8.58,0,0,1,5.81,2.51,5.16,5.16,0,0,1-.23,7.6,7.59,7.59,0,0,1-2.09,1.38c-.28.12-.3.26-.22.5a4.5,4.5,0,0,0,1.51,2l.26.21A.54.54,0,0,1,321,51a.5.5,0,0,1-.49.37c-2.16-.09-4.08-.68-5.31-2.63a.36.36,0,0,0-.36-.16,9.42,9.42,0,0,1-4.49-1.2c-.43-.24-.82-.56-1.24-.84a.56.56,0,0,0-.3-.12c-.35,0-.71,0-1.07.07a.34.34,0,0,0-.24.13,5.87,5.87,0,0,1-4,2.75,13.17,13.17,0,0,1-1.9.27.58.58,0,0,1-.63-.37.61.61,0,0,1,.26-.72,5.38,5.38,0,0,0,1.75-2l.07-.16c.27-.63.25-.66-.35-1a7.61,7.61,0,0,1-3.49-3.17,5.57,5.57,0,0,1,.66-6.35,8.9,8.9,0,0,1,5.21-3A19.93,19.93,0,0,1,307.18,32.51Zm-3.84,15.7c.26-.09.57-.18.86-.3a4.09,4.09,0,0,0,2.39-2.24.63.63,0,0,1,.61-.38,18.72,18.72,0,0,0,2.12-.15,8,8,0,0,0,4.75-2.37,4.43,4.43,0,0,0,1.15-4.72,5.71,5.71,0,0,0-2.74-3.1,9.92,9.92,0,0,0-7.29-1,7.74,7.74,0,0,0-4.31,2.45,4.49,4.49,0,0,0-.2,5.92,7.34,7.34,0,0,0,3.16,2.28.71.71,0,0,1,.5.73,3.09,3.09,0,0,1-.14,1.06A19.84,19.84,0,0,1,303.34,48.21Zm12.88-10.86,0,.16a5.51,5.51,0,0,1-1.12,5.78A8.79,8.79,0,0,1,310.82,46l-.36.12.21.13a8.35,8.35,0,0,0,4.6,1.15.75.75,0,0,1,.77.5,4,4,0,0,0,2.68,2.06c-.09-.13-.14-.2-.18-.27a3.69,3.69,0,0,1-.72-1.88c0-.63.08-.82.66-1.06A6.32,6.32,0,0,0,320.91,45a3.79,3.79,0,0,0,.68-4.32,5.33,5.33,0,0,0-2.35-2.37A8,8,0,0,0,316.22,37.35Z"/><path class="cls-4" d="M137.65,101.5a11.67,11.67,0,0,0-6.16,1.61,14,14,0,0,0-4.46,4.35,21.56,21.56,0,0,0-2.75,6.41,30.52,30.52,0,0,0-1,7.77,30,30,0,0,0,.25,3.8,23.9,23.9,0,0,0,.85,4,16.76,16.76,0,0,0,1.75,3.91,13.77,13.77,0,0,0,3,3.4,24.36,24.36,0,0,0-9.12,3.36,28.15,28.15,0,0,0-7,6.11,27.07,27.07,0,0,0-4.45,7.66A22.73,22.73,0,0,0,107,162a18.93,18.93,0,0,0,.7,5.06,14.6,14.6,0,0,0,2.21,4.66,11.73,11.73,0,0,0,4,3.45,12.21,12.21,0,0,0,6,1.35,19.89,19.89,0,0,0,8-1.75,32.82,32.82,0,0,0,7.61-4.71,41.46,41.46,0,0,0,6.61-6.86,43.93,43.93,0,0,0,5-8.21l1.4,1a61.4,61.4,0,0,1-6,9.47,48.36,48.36,0,0,1-7.26,7.61,31.25,31.25,0,0,1-8.47,5.06,25.78,25.78,0,0,1-9.56,1.8,21.75,21.75,0,0,1-8.12-1.45,18.61,18.61,0,0,1-6.15-4A17.07,17.07,0,0,1,99,168.71a18.35,18.35,0,0,1-1.35-7,22.06,22.06,0,0,1,2-9.07,26.71,26.71,0,0,1,5.56-8,32.61,32.61,0,0,1,8.26-6,27.61,27.61,0,0,1,10.12-2.9,19.91,19.91,0,0,1-5.76-7.41,20.67,20.67,0,0,1-1.85-8.42,19.67,19.67,0,0,1,1.55-7.71,21.78,21.78,0,0,1,4.3-6.61,21.43,21.43,0,0,1,6.52-4.66,19.38,19.38,0,0,1,8.26-1.75q5.61,0,8.51,2.81t2.91,8a19.48,19.48,0,0,1-.8,5.51,24.45,24.45,0,0,1-2,4.86,14.14,14.14,0,0,1-2.6,3.45,4,4,0,0,1-2.61,1.3,3,3,0,0,1-2.1-1,7.14,7.14,0,0,1-1.6-2.25,39,39,0,0,0,6-6.56,12.54,12.54,0,0,0,2.45-7.36,6.3,6.3,0,0,0-1.8-4.81A7.43,7.43,0,0,0,137.65,101.5Z"/><path class="cls-4" d="M141.26,170.51a16.85,16.85,0,0,1,1.1-3.1c.73-1.8,1.54-3.94,2.4-6.41s1.69-5.06,2.46-7.76a27.54,27.54,0,0,0,1.15-7.36,6.62,6.62,0,0,1,1.9-1.41,5.73,5.73,0,0,1,2.71-.7q2.7,0,2.7,2.61a25.89,25.89,0,0,1-.9,5.3c-.6,2.48-1.37,5.11-2.31,7.92q2-3,4.41-6.16a46.4,46.4,0,0,1,5.11-5.71,28.56,28.56,0,0,1,5.56-4.16,11.62,11.62,0,0,1,5.76-1.6,6.87,6.87,0,0,1,3.3.75,6.42,6.42,0,0,1,2.31,2.05,9.69,9.69,0,0,1,1.35,2.91,12.17,12.17,0,0,1,.45,3.3,14.94,14.94,0,0,1-.65,4.41c-.44,1.4-.9,2.74-1.4,4s-1,2.52-1.41,3.75a11.13,11.13,0,0,0-.65,3.66,4.12,4.12,0,0,0,.85,2.95,2.92,2.92,0,0,0,2.16.85,6.37,6.37,0,0,0,3.81-1.4,20.13,20.13,0,0,0,3.7-3.65,47.25,47.25,0,0,0,3.46-5q1.65-2.76,3-5.56l1.1,1.3a60.06,60.06,0,0,1-3.45,6.81,29.83,29.83,0,0,1-4,5.36,17.42,17.42,0,0,1-4.61,3.51,11.45,11.45,0,0,1-5.26,1.25,7,7,0,0,1-5.25-1.8,6.35,6.35,0,0,1-1.76-4.61,12.64,12.64,0,0,1,.45-3.21c.31-1.13.64-2.3,1-3.5s.7-2.4,1-3.61a14.79,14.79,0,0,0,.45-3.6c0-1.87-.39-3.16-1.15-3.86A4.09,4.09,0,0,0,169.3,148a10.11,10.11,0,0,0-6.31,2.6,39.64,39.64,0,0,0-6.21,6.46,95.25,95.25,0,0,0-5.66,8.12q-2.66,4.25-4.55,7.56a8.73,8.73,0,0,1-3.06-.55A4.76,4.76,0,0,1,141.26,170.51Z"/><path class="cls-4" d="M221.38,141.67c-.73-1-2.07-1.5-4-1.5a13.74,13.74,0,0,0-7.56,2.35,26.59,26.59,0,0,0-6.46,5.86,31.05,31.05,0,0,0-4.46,7.46,18.66,18.66,0,0,0-1.65,7.06,6,6,0,0,0,.95,3.66,3,3,0,0,0,2.55,1.25,6.58,6.58,0,0,0,3.21-1.05,21.48,21.48,0,0,0,3.75-2.86,45.25,45.25,0,0,0,4-4.2c1.33-1.61,2.64-3.31,3.9-5.11l1.21-5.31a5.78,5.78,0,0,1,.5-1.6,7.26,7.26,0,0,1,1-1.65,5.62,5.62,0,0,1,1.5-1.31,4,4,0,0,1,2.1-.55,8.82,8.82,0,0,1,2.11.3,24.8,24.8,0,0,1-.55,4q-.56,2.81-1.56,6.51t-2.45,8.06q-1.45,4.37-3.15,8.87a39.88,39.88,0,0,0,4.85-2.91,33.61,33.61,0,0,0,4.61-3.85,36,36,0,0,0,4-4.71,24.24,24.24,0,0,0,2.9-5.46l1.3,1a23.81,23.81,0,0,1-3.4,6.36,38.66,38.66,0,0,1-4.81,5.36,40.47,40.47,0,0,1-5.41,4.21,46.64,46.64,0,0,1-5.11,2.9c-1.4,3.41-2.85,6.59-4.35,9.57a52.88,52.88,0,0,1-4.71,7.76,24.47,24.47,0,0,1-5.06,5.21,9.09,9.09,0,0,1-5.41,1.9,6.5,6.5,0,0,1-4-1.35c-1.2-.9-1.81-2.39-1.81-4.46a9.25,9.25,0,0,1,1.86-5.56,22.12,22.12,0,0,1,4.75-4.71,50,50,0,0,1,6.31-4q3.41-1.8,6.62-3.41,1.4-3.51,2.65-7.56t2.45-9a50.14,50.14,0,0,1-8,9.16q-4.15,3.66-8.36,3.66a6.49,6.49,0,0,1-5.56-2.66,11.65,11.65,0,0,1-2-7.06,20.2,20.2,0,0,1,2.6-9.92,31.29,31.29,0,0,1,6.61-8.26,34.82,34.82,0,0,1,8.61-5.66,21.07,21.07,0,0,1,8.72-2.1,7,7,0,0,1,4.15.95,2.79,2.79,0,0,1,1.26,2.26,1.92,1.92,0,0,1-.5,1.4A3.88,3.88,0,0,1,221.38,141.67Zm-26,54.39a4.54,4.54,0,0,0,2.41-1,14.83,14.83,0,0,0,3.05-3,41.27,41.27,0,0,0,3.56-5.41,77.36,77.36,0,0,0,3.9-8.16q-3,1.5-5.76,3.05a32.88,32.88,0,0,0-4.85,3.31,17.76,17.76,0,0,0-3.41,3.65,7,7,0,0,0-1.3,4,4.46,4.46,0,0,0,.65,2.55A2,2,0,0,0,195.34,196.06Z"/><path class="cls-4" d="M265.66,106.51a22.62,22.62,0,0,1-1,5.71,59.92,59.92,0,0,1-2.7,7.66q-1.75,4.17-4.21,8.77t-5.41,9.06a89.11,89.11,0,0,1-6.36,8.47,58,58,0,0,1-7,7q-.6,2.7-.95,5.26a36.3,36.3,0,0,0-.35,4.85q0,7.71,4.41,7.71a6.89,6.89,0,0,0,4-1.4A19.53,19.53,0,0,0,250,166a40.44,40.44,0,0,0,3.56-5.16,61.72,61.72,0,0,0,3-5.81l1.5.8a49.73,49.73,0,0,1-8.71,13.52q-4.71,4.91-10.12,4.91-4.31,0-6.16-2.9a13.63,13.63,0,0,1-1.85-7.42,44.13,44.13,0,0,1,1.85-11.47,142.23,142.23,0,0,1,4.71-13.87q2.85-7.2,6.46-14.27t7.06-12.67a73.56,73.56,0,0,1,6.41-9.06q3-3.47,4.66-3.46a1.76,1.76,0,0,1,1.4.75,7.28,7.28,0,0,1,1.05,1.91,11.75,11.75,0,0,1,.66,2.45A15.9,15.9,0,0,1,265.66,106.51Zm-3.81.7c-.47,0-1.2.61-2.2,1.81a45.78,45.78,0,0,0-3.46,4.9c-1.3,2.08-2.72,4.51-4.26,7.32s-3,5.77-4.5,8.91-2.86,6.39-4.16,9.77-2.42,6.66-3.36,9.86a77.34,77.34,0,0,0,8.42-10.42,124.82,124.82,0,0,0,7.26-12,97.07,97.07,0,0,0,5.06-11,24.35,24.35,0,0,0,1.9-7.56,2.26,2.26,0,0,0-.25-1.31Q262,107.21,261.85,107.21Z"/><path class="cls-4" d="M268.56,137.26a2.35,2.35,0,0,1,1.55.55,2,2,0,0,1,.65,1.66,9.44,9.44,0,0,1-1.65,3.95q-1.65,2.76-3.61,6.21a67.81,67.81,0,0,0-3.55,7.31,19.16,19.16,0,0,0-1.6,7.36q0,3.62,1.2,4.81a5,5,0,0,0,3.7,1.2,8.5,8.5,0,0,0,3.51-.8,14.27,14.27,0,0,0,3.76-2.6,29.82,29.82,0,0,0,4-4.71,52.43,52.43,0,0,0,4.16-7.21l.9,1a35.78,35.78,0,0,1-3.66,7.66,25.57,25.57,0,0,1-4.75,5.61,19.32,19.32,0,0,1-5.51,3.41,15.86,15.86,0,0,1-5.81,1.15,6.9,6.9,0,0,1-5.81-2.45,9.45,9.45,0,0,1-1.9-6,23.23,23.23,0,0,1,.6-4.71,55.94,55.94,0,0,1,1.65-6c.7-2.11,1.5-4.19,2.4-6.26a39.82,39.82,0,0,1,3-5.61,19.34,19.34,0,0,1,3.35-4.06A5.3,5.3,0,0,1,268.56,137.26Zm5.31-9.31a5.15,5.15,0,0,1-2.91-.8,2.81,2.81,0,0,1-1.2-2.51,3.22,3.22,0,0,1,.7-2,7.66,7.66,0,0,1,1.75-1.7,8.37,8.37,0,0,1,2.36-1.16,8.73,8.73,0,0,1,2.5-.4,3.88,3.88,0,0,1,2.41.7,2.88,2.88,0,0,1,.9,2.41,4,4,0,0,1-.55,1.9,5.7,5.7,0,0,1-1.51,1.75,9.59,9.59,0,0,1-2.1,1.26A5.91,5.91,0,0,1,273.87,128Z"/><path class="cls-4" d="M276.87,163.2a10.1,10.1,0,0,1,.85-4.6,7,7,0,0,1,2-2.41,7.94,7.94,0,0,1,2.15-1.15,3.1,3.1,0,0,0,1.45-.85,69.23,69.23,0,0,0,5.51-6.91,54.21,54.21,0,0,0,4.41-7.61v-1.21c0-2.47.41-4.22,1.25-5.26a3.49,3.49,0,0,1,2.65-1.55c1.07,0,1.61.44,1.61,1.31a7,7,0,0,1-.3,1.6,10.83,10.83,0,0,0-.31,2.8,18.66,18.66,0,0,0,.81,5.26c.53,1.84,1.13,3.77,1.8,5.81s1.27,4.16,1.8,6.36a28.57,28.57,0,0,1,.8,6.71,18.71,18.71,0,0,1-.6,4.91,14.3,14.3,0,0,0,6.61-3.11q3.1-2.51,6-8.21l.9,1a17.11,17.11,0,0,1-5.7,8.37,18.47,18.47,0,0,1-8.32,3.55,11.68,11.68,0,0,1-5.06,6.31,15.23,15.23,0,0,1-7.76,2,13.13,13.13,0,0,1-5.91-1.2,10.85,10.85,0,0,1-3.85-3.1,12.54,12.54,0,0,1-2.11-4.21A17,17,0,0,1,276.87,163.2Zm12.72,9.62a8.48,8.48,0,0,0,1.45-.15,5.74,5.74,0,0,0,1.76-.65,6.16,6.16,0,0,0,1.7-1.46,8.46,8.46,0,0,0,1.4-2.65,17.75,17.75,0,0,1-7.46-3.25,19.23,19.23,0,0,1-4.86-5.06c-1.47.07-2.2,1.23-2.2,3.5a11.75,11.75,0,0,0,.55,3.56,9.8,9.8,0,0,0,1.6,3.1,8.38,8.38,0,0,0,2.56,2.21A7.06,7.06,0,0,0,289.59,172.82Zm7.21-11.22a38,38,0,0,0-1.15-9.37q-1.15-4.54-1.95-8.76-2.31,3.81-4.86,7.26a49.56,49.56,0,0,1-4.86,5.76,18.79,18.79,0,0,0,4.66,6,16.82,16.82,0,0,0,7.76,3.81,17,17,0,0,0,.3-2.11C296.77,163.47,296.8,162.6,296.8,161.6Z"/><path class="cls-4" d="M338.27,167.31a13.08,13.08,0,0,1,.5-3.46c.33-1.23.68-2.52,1.05-3.85s.72-2.67,1.05-4a15.35,15.35,0,0,0,.5-3.81,5.1,5.1,0,0,0-1.1-3.7,3.65,3.65,0,0,0-2.7-1.1,6.16,6.16,0,0,0-4.51,2.05,22.54,22.54,0,0,0-3.65,5.11,57.07,57.07,0,0,0-3.06,6.66c-.94,2.4-1.85,4.62-2.76,6.66a39,39,0,0,1-2.65,5.11c-.87,1.37-1.77,2.05-2.7,2.05a2.32,2.32,0,0,1-1.71-.9,7.1,7.1,0,0,1-1.3-2.35,20.35,20.35,0,0,1-.8-3.31,24.06,24.06,0,0,1-.3-3.86,50,50,0,0,1,1.6-11.46,131.38,131.38,0,0,1,4.21-13.88q2.6-7.2,5.91-14.27t6.61-12.72a57.62,57.62,0,0,1,6.36-9.11q3.06-3.47,5.26-3.46a2.2,2.2,0,0,1,1.55.6,3.89,3.89,0,0,1,1,1.56,12.67,12.67,0,0,1,.75,4.15,21.41,21.41,0,0,1-.9,5.56,56.24,56.24,0,0,1-2.45,6.91,72.77,72.77,0,0,1-3.71,7.46,70,70,0,0,1-4.71,7.26,52.49,52.49,0,0,1-5.45,6.31,33.8,33.8,0,0,1-5.81,4.66,41,41,0,0,0-1.61,4.81c-.46,1.74-.85,3.49-1.15,5.26s-.53,3.49-.7,5.16a44.75,44.75,0,0,0-.25,4.5c0,.74,0,1.37.05,1.91s.08,1,.15,1.5q1.8-5.12,3.91-9.82a47.9,47.9,0,0,1,4.66-8.31,23.7,23.7,0,0,1,5.5-5.71,10.63,10.63,0,0,1,6.26-2.1,7.32,7.32,0,0,1,3.56.8,7,7,0,0,1,2.35,2.05,8.2,8.2,0,0,1,1.3,2.91,13.63,13.63,0,0,1,.4,3.25,16.11,16.11,0,0,1-.65,4.56,43.86,43.86,0,0,1-1.5,4.36c-.57,1.4-1.07,2.77-1.5,4.1a12.2,12.2,0,0,0-.65,3.81,4.12,4.12,0,0,0,.85,2.9,2.83,2.83,0,0,0,2.15.9,7.38,7.38,0,0,0,3.81-1.3,23.16,23.16,0,0,0,4.21-3.45,38.31,38.31,0,0,0,4.1-5.06,40.09,40.09,0,0,0,3.51-6.21l1.3,1.2a42.75,42.75,0,0,1-3.71,6.86,31.12,31.12,0,0,1-4.6,5.51,21.69,21.69,0,0,1-5.26,3.71,12.76,12.76,0,0,1-5.66,1.35,6.86,6.86,0,0,1-5.21-1.8A6.35,6.35,0,0,1,338.27,167.31Zm5.31-59.49c-.54,0-1.52.91-3,2.75a73.1,73.1,0,0,0-4.86,7.31q-2.7,4.56-5.45,10.42a92.32,92.32,0,0,0-4.66,12,39.46,39.46,0,0,0,6.71-7.37,87.55,87.55,0,0,0,5.91-9.31,69.07,69.07,0,0,0,4.15-8.91,19.87,19.87,0,0,0,1.56-6.06C344,108.08,343.84,107.82,343.58,107.82Z"/><path class="cls-4" d="M368.21,107.91a6.14,6.14,0,0,1,2.11-4.2,13.64,13.64,0,0,1,5.11-2.71A39.49,39.49,0,0,1,383,99.55a95,95,0,0,1,9.61-.45c3.41,0,6.56.12,9.47.35s5.62.49,8.16.75,5,.52,7.41.75,4.81.35,7.22.35a16.07,16.07,0,0,1-7.87,3.91,50.61,50.61,0,0,1-9.26.8c-1.14,0-2.3,0-3.51-.05s-2.4,0-3.6,0q-3.21,8.11-7.36,20.23t-8.37,27.55l-2,7.31c-.6,2.2-1.14,4.27-1.6,6.21a53.57,53.57,0,0,0-1,5.46,36.2,36.2,0,0,0-.36,5.06v1.1a6.24,6.24,0,0,0,.1,1.1q-4.5,0-6.21-2a7.62,7.62,0,0,1-1.7-5.16,24.64,24.64,0,0,1,1.2-6.91c.8-2.67,1.64-5.25,2.51-7.72q1.69-4.91,4.1-11.56t5.16-13.78q2.76-7.11,5.61-14.17c1.91-4.71,3.75-9,5.56-12.77l-9,.2q-3.81.11-7,.3t-6,.55C372.45,107.2,370.42,107.51,368.21,107.91Z"/><path class="cls-4" d="M429.91,150l1.1.3a10.51,10.51,0,0,1,1.36.5,4.72,4.72,0,0,1,1.1.7,1.29,1.29,0,0,1,.45,1A5.68,5.68,0,0,1,433,155l-2,3.56q-1.1,1.95-2,4a9.67,9.67,0,0,0-.9,3.86,6.09,6.09,0,0,0,.8,3,2.75,2.75,0,0,0,2.61,1.45q2.7,0,7.11-3.9T447.54,155l1,1a36.79,36.79,0,0,1-3.9,7.46,32.61,32.61,0,0,1-5,5.76,22.1,22.1,0,0,1-5.46,3.71,13,13,0,0,1-5.51,1.3c-2.47,0-4.29-.74-5.46-2.2a7.55,7.55,0,0,1-1.75-4.81,17.27,17.27,0,0,1,.3-2.91,53.67,53.67,0,0,1-7.91,8.72,11.26,11.26,0,0,1-7.21,2.9,7.28,7.28,0,0,1-5.31-2c-1.4-1.37-2.11-3.46-2.11-6.26a20,20,0,0,1,1.16-6.41,37,37,0,0,1,3.15-6.86,44.84,44.84,0,0,1,4.71-6.61,40.67,40.67,0,0,1,5.76-5.56,29.3,29.3,0,0,1,6.36-3.86,16.41,16.41,0,0,1,6.61-1.45,10.25,10.25,0,0,1,6.51,2,6.62,6.62,0,0,1,2.6,5.46c0,1.67-.45,2.81-1.35,3.41a6.32,6.32,0,0,1-3.56.9,12.85,12.85,0,0,0,.51-3.51,6.92,6.92,0,0,0-1.11-3.95,4.22,4.22,0,0,0-3.8-1.65A9.42,9.42,0,0,0,422,141a22.84,22.84,0,0,0-4.71,3.75,37.09,37.09,0,0,0-4.3,5.36,53,53,0,0,0-3.56,6.16,36.12,36.12,0,0,0-2.4,6.21,20.53,20.53,0,0,0-.85,5.46c0,2.6.9,3.91,2.7,3.91,1.54,0,3.27-.81,5.21-2.41a47.46,47.46,0,0,0,5.8-5.81q2.91-3.4,5.57-7.16C427.22,153.94,428.71,151.78,429.91,150Z"/><path class="cls-4" d="M480.39,106.51a22.53,22.53,0,0,1-.95,5.71,59.92,59.92,0,0,1-2.7,7.66q-1.75,4.17-4.21,8.77t-5.41,9.06a89.11,89.11,0,0,1-6.36,8.47,58,58,0,0,1-7,7q-.6,2.7-.95,5.26a34.71,34.71,0,0,0-.35,4.85q0,7.71,4.41,7.71a6.89,6.89,0,0,0,4-1.4,19.53,19.53,0,0,0,3.86-3.65,40.44,40.44,0,0,0,3.56-5.16,61.72,61.72,0,0,0,3-5.81l1.5.8a49.73,49.73,0,0,1-8.71,13.52q-4.71,4.91-10.12,4.91-4.31,0-6.16-2.9a13.63,13.63,0,0,1-1.85-7.42,44.13,44.13,0,0,1,1.85-11.47,142.23,142.23,0,0,1,4.71-13.87q2.85-7.2,6.46-14.27T466,111.62a72.5,72.5,0,0,1,6.41-9.06q3-3.47,4.66-3.46a1.76,1.76,0,0,1,1.4.75,7.28,7.28,0,0,1,1.05,1.91,11.16,11.16,0,0,1,.65,2.45A14.6,14.6,0,0,1,480.39,106.51Zm-3.8.7c-.47,0-1.2.61-2.21,1.81a47.39,47.39,0,0,0-3.45,4.9c-1.3,2.08-2.72,4.51-4.26,7.32s-3,5.77-4.51,8.91-2.85,6.39-4.15,9.77-2.42,6.66-3.36,9.86a77.34,77.34,0,0,0,8.42-10.42,126.89,126.89,0,0,0,7.26-12,97.07,97.07,0,0,0,5.06-11,24.35,24.35,0,0,0,1.9-7.56,2.26,2.26,0,0,0-.25-1.31Q476.79,107.21,476.59,107.21Z"/><path class="cls-4" d="M488.91,157a14.22,14.22,0,0,0,3.25-.55,17.79,17.79,0,0,0,4.26-1.7,13.56,13.56,0,0,0,3.7-3,6.37,6.37,0,0,0,1.61-4.4,4,4,0,0,0-1.51-3.31,5.44,5.44,0,0,0-3.5-1.2,8.55,8.55,0,0,0-5.51,2,25.26,25.26,0,0,0-4.66,5.16,44.61,44.61,0,0,0-3.85,6.81q-1.71,3.71-2.91,7c-.8,2.17-1.47,4.08-2,5.71a22.31,22.31,0,0,1-1.1,3,3.17,3.17,0,0,1-1.51,1.35,4.61,4.61,0,0,1-1.9.45,2.51,2.51,0,0,1-2-.8,5.15,5.15,0,0,1-1-2.15,13.35,13.35,0,0,1-.4-3.06c0-1.13-.05-2.27-.05-3.4a49.41,49.41,0,0,1,1.75-12.07,126,126,0,0,1,4.56-14.13q2.79-7.26,6.21-14.27a138.94,138.94,0,0,1,6.81-12.52,69.82,69.82,0,0,1,6.31-8.86q2.9-3.36,4.7-3.36c.94,0,1.69.64,2.26,1.9a11.4,11.4,0,0,1,.85,4.61,22.52,22.52,0,0,1-1.55,7.71,45.11,45.11,0,0,1-4.26,8.47A49.65,49.65,0,0,1,491,130.5a42.18,42.18,0,0,1-8.16,6.56,94.23,94.23,0,0,0-5,15.78,63,63,0,0,0-1.65,12.87c1.06-2.67,2.37-5.63,3.9-8.87a71.68,71.68,0,0,1,5.16-9.11,35.21,35.21,0,0,1,6.21-7.16,10.76,10.76,0,0,1,7.16-2.91,8.91,8.91,0,0,1,8.92,8.92,9,9,0,0,1-1.66,5.46,13.7,13.7,0,0,1-3.95,3.65,17.94,17.94,0,0,1-8.62,2.6c.07.54.27,1.52.61,3a24.76,24.76,0,0,0,1.45,4.36,15.75,15.75,0,0,0,2.35,3.9,4.27,4.27,0,0,0,3.41,1.71,7.59,7.59,0,0,0,4.1-1.26,17.27,17.27,0,0,0,3.91-3.45,32.12,32.12,0,0,0,3.6-5.21,69.64,69.64,0,0,0,3.21-6.41l1,1a35.28,35.28,0,0,1-7.41,13.27,22.26,22.26,0,0,1-5.11,4.26,10.34,10.34,0,0,1-5.31,1.6,6.61,6.61,0,0,1-4.86-2,15,15,0,0,1-3.15-4.76,25,25,0,0,1-1.7-5.91A33.81,33.81,0,0,1,488.91,157Zm10.61-49.17c-.53,0-1.33.68-2.4,2.05a59.85,59.85,0,0,0-3.71,5.51q-2.1,3.45-4.4,8.06t-4.51,9.62a47.7,47.7,0,0,0,6.26-6.21,50.66,50.66,0,0,0,4.86-6.82,39.55,39.55,0,0,0,3.1-6.41,14.81,14.81,0,0,0,1.1-4.9Q499.82,107.82,499.52,107.82Z"/></g></g></svg>