<?xml version="1.0" standalone="no"?>
<!DOCTYPE svg PUBLIC "-//W3C//DTD SVG 20010904//EN"
 "http://www.w3.org/TR/2001/REC-SVG-20010904/DTD/svg10.dtd">
<svg version="1.0" xmlns="http://www.w3.org/2000/svg"
 width="200.000000pt" height="200.000000pt" viewBox="0 0 200.000000 200.000000"
 preserveAspectRatio="xMidYMid meet">
<metadata>
Created by potrace 1.11, written by Peter Selinger 2001-2013
</metadata>
<g transform="translate(0.000000,200.000000) scale(0.100000,-0.100000)"
fill="#000000" stroke="none">
<path d="M817 1984 c-196 -35 -372 -129 -522 -279 -113 -114 -178 -213 -231
-354 -108 -286 -78 -604 82 -873 66 -112 220 -266 332 -332 327 -194 717 -194
1044 0 112 66 266 220 332 332 194 327 194 717 0 1044 -66 112 -220 266 -332
332 -212 126 -467 173 -705 130z m161 -66 c17 -17 15 -75 -3 -82 -19 -7 -20
-40 -1 -55 9 -8 21 -8 39 -2 38 15 43 32 17 53 -28 22 -21 23 24 1 34 -16 37
-16 56 2 16 15 26 17 48 9 29 -10 41 -39 23 -57 -6 -6 -32 -14 -59 -17 -29 -3
-46 -10 -45 -18 4 -16 -2 -15 -38 3 -21 12 -34 13 -48 5 -26 -13 -31 -13 -25
4 8 22 -14 29 -25 8 -15 -27 5 -42 55 -42 142 0 226 -138 163 -267 -52 -109
-212 -131 -296 -41 -71 76 -67 188 9 261 21 20 47 38 56 38 9 1 -5 5 -33 10
-63 10 -93 41 -72 73 24 36 62 43 96 18 l29 -21 7 22 c4 12 8 24 10 27 1 3 5
13 9 23 15 32 -1 50 -37 43 -23 -4 -28 -3 -17 4 20 13 44 12 58 -2z m-44 -57
c-5 -6 -34 20 -34 30 0 5 8 1 18 -8 10 -10 17 -20 16 -22z m-398 -606 c13 -20
14 -30 4 -59 -12 -38 -34 -61 -49 -52 -6 4 0 21 14 43 14 20 25 41 25 47 0 19
-22 36 -45 36 -54 0 -92 -98 -62 -159 l15 -31 -38 -21 c-41 -23 -80 -82 -80
-122 0 -36 36 -77 69 -77 15 0 47 13 72 28 41 26 60 53 88 125 14 35 37 30 34
-7 l-2 -27 40 35 c21 20 47 36 57 36 40 0 53 -45 31 -109 -18 -50 2 -61 40
-23 17 17 31 38 31 46 0 45 115 128 155 112 25 -9 17 -21 -15 -22 -34 -1 -65
-25 -86 -66 -19 -37 -18 -78 2 -78 21 0 84 68 84 91 0 19 27 45 37 35 4 -4 -2
-38 -14 -76 -17 -60 -18 -68 -4 -60 32 17 59 56 76 110 19 60 94 210 124 249
24 31 51 22 51 -18 0 -40 -71 -179 -114 -221 -29 -29 -35 -42 -36 -77 0 -23 5
-45 10 -48 21 -13 61 27 93 92 30 63 58 95 72 82 3 -4 -8 -32 -25 -64 -32 -61
-38 -100 -16 -108 19 -7 59 15 71 39 6 11 24 34 40 51 29 28 47 58 59 96 3 9
9 17 13 17 9 0 36 -121 36 -157 -1 -13 5 -23 12 -23 23 0 44 35 79 135 54 151
123 252 146 215 22 -33 -26 -145 -86 -206 -21 -20 -40 -52 -45 -72 -14 -62 -9
-69 15 -22 32 60 58 82 93 78 23 -2 29 -8 31 -33 2 -16 -1 -47 -8 -69 -21 -72
26 -71 75 2 29 43 34 32 5 -15 -23 -39 -52 -55 -88 -51 -26 3 -27 5 -25 58 2
30 1 61 -2 68 -10 26 -47 -9 -75 -74 -35 -77 -57 -85 -62 -22 -2 24 -3 24 -31
9 -16 -9 -40 -26 -53 -38 -30 -30 -74 -30 -103 1 l-22 23 -39 -19 c-30 -15
-43 -17 -59 -8 -12 6 -21 18 -21 26 0 12 -7 10 -31 -10 -42 -35 -78 -34 -92 3
l-10 28 -42 -31 c-24 -18 -54 -54 -71 -86 -38 -73 -91 -98 -108 -53 -9 23 18
59 64 85 36 21 60 53 60 80 0 6 -10 2 -22 -9 -36 -32 -64 -37 -87 -14 -19 19
-19 19 -37 0 -12 -13 -28 -19 -48 -17 l-31 3 3 63 3 63 -28 -3 c-26 -3 -47
-25 -105 -108 -16 -24 -18 -24 -32 -7 -11 14 -15 15 -19 4 -7 -20 -87 -57
-121 -57 -89 0 -135 94 -83 170 17 25 71 64 105 76 1 0 -5 15 -14 33 -37 73
16 161 96 161 31 0 43 -5 56 -25z m732 -102 c-2 -11 -14 -19 -31 -21 -29 -4
-35 6 -15 26 19 19 50 15 46 -5z m-413 -482 l50 -7 -40 -12 c-22 -7 -53 -12
-68 -12 -22 0 -31 -7 -42 -34 -26 -62 -86 -271 -92 -318 -6 -49 -20 -60 -43
-33 -18 22 3 93 99 334 l22 53 -74 -4 c-60 -3 -74 -1 -69 10 2 8 14 18 26 22
25 10 162 11 231 1z m350 -14 c11 -43 -54 -182 -113 -242 -41 -42 -49 -125
-13 -125 29 0 65 54 91 135 41 127 124 266 150 250 32 -20 -6 -122 -66 -174
-23 -21 -41 -49 -50 -78 -20 -66 -17 -83 7 -43 53 88 104 113 135 65 15 -23
15 -27 0 -50 -9 -14 -27 -27 -41 -31 -29 -7 -31 -21 -9 -52 22 -32 38 -28 79
21 34 39 36 39 21 10 -23 -46 -55 -73 -88 -73 -28 0 -40 14 -52 62 -5 22 -2
29 21 40 35 18 51 44 36 59 -26 26 -62 -7 -99 -87 -36 -77 -56 -90 -62 -40
l-3 27 -29 -31 c-42 -44 -100 -37 -100 13 0 16 -5 15 -35 -12 -42 -36 -79 -40
-96 -10 -11 21 -11 21 -38 -5 -33 -32 -66 -33 -82 -5 -18 34 5 94 57 146 41
40 48 44 87 41 38 -3 42 -6 45 -30 2 -16 -1 -28 -7 -28 -6 0 -11 9 -11 19 0
23 -25 34 -50 21 -50 -27 -107 -137 -83 -161 13 -13 74 38 100 82 17 28 43 40
43 19 0 -6 -7 -25 -16 -41 -17 -33 -13 -59 9 -59 28 0 69 61 103 151 38 103
118 239 140 239 7 0 16 -10 19 -23z"/>
<path d="M1110 1825 c-15 -18 2 -45 30 -45 28 0 45 27 30 45 -7 8 -20 15 -30
15 -10 0 -23 -7 -30 -15z"/>
<path d="M840 1810 c-23 -23 -17 -48 17 -61 40 -15 59 -10 71 16 10 21 9 28
-8 45 -25 25 -55 25 -80 0z"/>
<path d="M1055 1800 c-3 -11 -12 -20 -18 -20 -7 0 -6 -4 3 -10 16 -10 40 5 40
26 0 22 -18 25 -25 4z"/>
<path d="M983 1693 c26 -7 21 -20 -8 -20 -28 0 -42 -9 -31 -20 3 -4 11 -2 17
4 14 14 39 5 39 -14 0 -8 -4 -12 -9 -9 -5 4 -23 -5 -39 -19 -16 -14 -37 -25
-46 -25 -9 0 -16 -3 -16 -6 0 -13 35 -33 57 -34 12 0 28 -6 35 -13 7 -7 21
-16 30 -20 23 -8 15 -31 -28 -80 -27 -30 16 -48 68 -28 47 19 66 46 59 88 -5
32 -10 38 -33 41 -31 4 -41 29 -20 54 8 9 15 28 16 43 0 16 6 23 14 20 23 -9
12 5 -20 25 -18 11 -49 19 -68 19 -19 -1 -27 -3 -17 -6z"/>
<path d="M1097 1623 c-4 -6 0 -14 9 -17 24 -9 36 -7 29 4 -4 6 -10 8 -15 5 -4
-3 -10 0 -12 7 -3 8 -6 9 -11 1z"/>
<path d="M847 1566 c-12 -31 12 -91 52 -128 22 -21 45 -38 50 -38 14 0 1 72
-17 92 -8 10 -12 24 -9 32 4 9 -5 18 -24 26 -16 7 -29 16 -29 21 0 14 -17 10
-23 -5z"/>
<path d="M1148 1213 c-18 -21 -72 -125 -83 -163 -8 -24 -7 -25 13 -7 25 23 96
161 90 177 -2 8 -9 5 -20 -7z"/>
<path d="M1598 1213 c-9 -10 -30 -47 -48 -83 -29 -57 -30 -63 -10 -45 21 19
51 70 70 120 11 30 8 31 -12 8z"/>
<path d="M1313 996 l-22 -34 23 -21 c27 -26 46 -27 46 -3 0 32 -13 92 -19 92
-3 0 -16 -15 -28 -34z"/>
<path d="M1280 926 c0 -28 22 -49 46 -44 29 5 25 22 -11 45 l-35 22 0 -23z"/>
<path d="M832 824 c-27 -19 -45 -51 -36 -65 8 -13 41 16 60 53 16 32 9 35 -24
12z"/>
<path d="M1132 552 c-23 -43 -46 -92 -52 -108 l-10 -29 29 34 c30 33 91 149
91 170 0 29 -21 4 -58 -67z"/>
<path d="M1270 574 c-18 -30 -30 -58 -27 -61 7 -7 67 86 67 104 0 23 -8 15
-40 -43z"/>
</g>
</svg>
